<svg viewBox="0 0 1200 1000" xmlns="http://www.w3.org/2000/svg">
  <!-- Title -->
  <text x="600" y="35" font-size="28" font-weight="bold" text-anchor="middle" fill="#2c3e50">
    Your 30-Day Roadmap: Slowcat → Fastcat 🚀
  </text>
  
  <!-- Current State -->
  <rect x="50" y="70" width="250" height="100" rx="15" fill="#e74c3c" opacity="0.8"/>
  <text x="175" y="100" font-size="16" font-weight="bold" text-anchor="middle" fill="white">Current State</text>
  <text x="175" y="125" font-size="14" text-anchor="middle" fill="white">~800ms latency</text>
  <text x="175" y="145" font-size="12" text-anchor="middle" fill="white">Works but not optimal</text>
  
  <!-- Target State -->
  <rect x="900" y="70" width="250" height="100" rx="15" fill="#27ae60" opacity="0.8"/>
  <text x="1025" y="100" font-size="16" font-weight="bold" text-anchor="middle" fill="white">Target State</text>
  <text x="1025" y="125" font-size="14" text-anchor="middle" fill="white">~400ms latency</text>
  <text x="1025" y="145" font-size="12" text-anchor="middle" fill="white">Production ready!</text>
  
  <!-- Progress Arrow -->
  <path d="M 300 120 L 900 120" stroke="#34495e" stroke-width="4" marker-end="url(#big-arrow)"/>
  <text x="600" y="115" font-size="14" text-anchor="middle" fill="#34495e">30 Days</text>
  
  <!-- Week 1 -->
  <g id="week1">
    <rect x="100" y="200" width="1000" height="180" rx="15" fill="#e8f4fd" stroke="#2196f3" stroke-width="2"/>
    <circle cx="130" cy="230" r="20" fill="#2196f3"/>
    <text x="130" y="237" font-size="16" font-weight="bold" text-anchor="middle" fill="white">W1</text>
    
    <text x="180" y="235" font-size="18" font-weight="bold" fill="#0d47a1">Week 1: Quick Wins (Save 200ms)</text>
    
    <rect x="180" y="250" width="280" height="110" rx="10" fill="white" stroke="#2196f3" stroke-width="1"/>
    <text x="190" y="270" font-size="13" font-weight="bold" fill="#0d47a1">Day 1-2: Pipeline Parallelization</text>
    <text x="190" y="290" font-size="11" fill="#424242">• Start LLM with partial STT</text>
    <text x="190" y="308" font-size="11" fill="#424242">• Stream TTS from first tokens</text>
    <text x="190" y="326" font-size="11" fill="#424242">• Don't wait for complete stages</text>
    <text x="190" y="344" font-size="11" font-weight="bold" fill="#27ae60">Impact: -100ms</text>
    
    <rect x="480" y="250" width="280" height="110" rx="10" fill="white" stroke="#2196f3" stroke-width="1"/>
    <text x="490" y="270" font-size="13" font-weight="bold" fill="#0d47a1">Day 3-4: Model Prewarming</text>
    <text x="490" y="290" font-size="11" fill="#424242">• Load all models on startup</text>
    <text x="490" y="308" font-size="11" fill="#424242">• Run dummy inference</text>
    <text x="490" y="326" font-size="11" fill="#424242">• Compile Metal shaders early</text>
    <text x="490" y="344" font-size="11" font-weight="bold" fill="#27ae60">Impact: -50ms first response</text>
    
    <rect x="780" y="250" width="280" height="110" rx="10" fill="white" stroke="#2196f3" stroke-width="1"/>
    <text x="790" y="270" font-size="13" font-weight="bold" fill="#0d47a1">Day 5-7: Cache Everything</text>
    <text x="790" y="290" font-size="11" fill="#424242">• MCP results for 60s</text>
    <text x="790" y="308" font-size="11" fill="#424242">• Common TTS phrases</text>
    <text x="790" y="326" font-size="11" fill="#424242">• Speaker embeddings</text>
    <text x="790" y="344" font-size="11" font-weight="bold" fill="#27ae60">Impact: -50ms avg</text>
  </g>
  
  <!-- Week 2 -->
  <g id="week2">
    <rect x="100" y="400" width="1000" height="180" rx="15" fill="#fce4ec" stroke="#e91e63" stroke-width="2"/>
    <circle cx="130" cy="430" r="20" fill="#e91e63"/>
    <text x="130" y="437" font-size="16" font-weight="bold" text-anchor="middle" fill="white">W2</text>
    
    <text x="180" y="435" font-size="18" font-weight="bold" fill="#880e4f">Week 2: Fix STT Accuracy (Save 150ms)</text>
    
    <rect x="180" y="450" width="280" height="110" rx="10" fill="white" stroke="#e91e63" stroke-width="1"/>
    <text x="190" y="470" font-size="13" font-weight="bold" fill="#880e4f">Day 8-10: Hybrid STT</text>
    <text x="190" y="490" font-size="11" fill="#424242">• Sherpa for streaming</text>
    <text x="190" y="508" font-size="11" fill="#424242">• Async MLX for entities</text>
    <text x="190" y="526" font-size="11" fill="#424242">• Smart correction logic</text>
    <text x="190" y="544" font-size="11" font-weight="bold" fill="#27ae60">Impact: -100ms + accuracy</text>
    
    <rect x="480" y="450" width="280" height="110" rx="10" fill="white" stroke="#e91e63" stroke-width="1"/>
    <text x="490" y="470" font-size="13" font-weight="bold" fill="#880e4f">Day 11-12: Audio Preprocessing</text>
    <text x="490" y="490" font-size="11" fill="#424242">• Proper noise reduction</text>
    <text x="490" y="508" font-size="11" fill="#424242">• Echo cancellation</text>
    <text x="490" y="526" font-size="11" fill="#424242">• Normalize at 16kHz</text>
    <text x="490" y="544" font-size="11" font-weight="bold" fill="#27ae60">Impact: Better accuracy</text>
    
    <rect x="780" y="450" width="280" height="110" rx="10" fill="white" stroke="#e91e63" stroke-width="1"/>
    <text x="790" y="470" font-size="13" font-weight="bold" fill="#880e4f">Day 13-14: VAD Tuning</text>
    <text x="790" y="490" font-size="11" fill="#424242">• Adjust thresholds</text>
    <text x="790" y="508" font-size="11" fill="#424242">• Implement barge-in</text>
    <text x="790" y="526" font-size="11" fill="#424242">• Faster end detection</text>
    <text x="790" y="544" font-size="11" font-weight="bold" fill="#27ae60">Impact: -50ms detection</text>
  </g>
  
  <!-- Week 3 -->
  <g id="week3">
    <rect x="100" y="600" width="1000" height="180" rx="15" fill="#e8f5e8" stroke="#27ae60" stroke-width="2"/>
    <circle cx="130" cy="630" r="20" fill="#27ae60"/>
    <text x="130" y="637" font-size="16" font-weight="bold" text-anchor="middle" fill="white">W3</text>
    
    <text x="180" y="635" font-size="18" font-weight="bold" fill="#155724">Week 3: Production Hardening</text>
    
    <rect x="180" y="650" width="280" height="110" rx="10" fill="white" stroke="#27ae60" stroke-width="1"/>
    <text x="190" y="670" font-size="13" font-weight="bold" fill="#155724">Day 15-17: Memory Management</text>
    <text x="190" y="690" font-size="11" fill="#424242">• Monitor memory usage</text>
    <text x="190" y="708" font-size="11" fill="#424242">• Implement auto-eviction</text>
    <text x="190" y="726" font-size="11" fill="#424242">• Optimize model loading</text>
    <text x="190" y="744" font-size="11" font-weight="bold" fill="#155724">Impact: Stable performance</text>
    
    <rect x="480" y="650" width="280" height="110" rx="10" fill="white" stroke="#27ae60" stroke-width="1"/>
    <text x="490" y="670" font-size="13" font-weight="bold" fill="#155724">Day 18-19: Error Recovery</text>
    <text x="490" y="690" font-size="11" fill="#424242">• Add circuit breakers</text>
    <text x="490" y="708" font-size="11" fill="#424242">• Implement fallbacks</text>
    <text x="490" y="726" font-size="11" fill="#424242">• Graceful degradation</text>
    <text x="490" y="744" font-size="11" font-weight="bold" fill="#155724">Impact: 99.9% uptime</text>
    
    <rect x="780" y="650" width="280" height="110" rx="10" fill="white" stroke="#27ae60" stroke-width="1"/>
    <text x="790" y="670" font-size="13" font-weight="bold" fill="#155724">Day 20-21: Thermal Management</text>
    <text x="790" y="690" font-size="11" fill="#424242">• Monitor temperatures</text>
    <text x="790" y="708" font-size="11" fill="#424242">• Implement duty cycling</text>
    <text x="790" y="726" font-size="11" fill="#424242">• Smart model switching</text>
    <text x="790" y="744" font-size="11" font-weight="bold" fill="#155724">Impact: Hours of operation</text>
  </g>
  
  <!-- Week 4 -->
  <g id="week4">
    <rect x="100" y="800" width="1000" height="150" rx="15" fill="#fff3cd" stroke="#f39c12" stroke-width="2"/>
    <circle cx="130" cy="830" r="20" fill="#f39c12"/>
    <text x="130" y="837" font-size="16" font-weight="bold" text-anchor="middle" fill="white">W4</text>
    
    <text x="180" y="835" font-size="18" font-weight="bold" fill="#856404">Week 4: Polish & Optimize</text>
    
    <rect x="180" y="850" width="400" height="80" rx="10" fill="white" stroke="#f39c12" stroke-width="1"/>
    <text x="190" y="870" font-size="13" font-weight="bold" fill="#856404">Day 22-28: Fine Tuning</text>
    <text x="190" y="890" font-size="11" fill="#424242">• Profile every component</text>
    <text x="190" y="908" font-size="11" fill="#424242">• A/B test model sizes (4B vs 7B)</text>
    <text x="380" y="890" font-size="11" fill="#424242">• Optimize hot paths</text>
    <text x="380" y="908" font-size="11" fill="#424242">• Test with real users</text>
    
    <rect x="600" y="850" width="460" height="80" rx="10" fill="white" stroke="#f39c12" stroke-width="1"/>
    <text x="610" y="870" font-size="13" font-weight="bold" fill="#856404">Day 29-30: Launch Prep</text>
    <text x="610" y="890" font-size="11" fill="#424242">• Document all optimizations</text>
    <text x="610" y="908" font-size="11" fill="#424242">• Set up monitoring dashboard</text>
    <text x="820" y="890" font-size="11" fill="#424242">• Create fallback procedures</text>
    <text x="820" y="908" font-size="11" fill="#424242">• Celebrate! 🎉</text>
  </g>
  
  <!-- Success Metrics -->
  <rect x="100" y="970" width="1000" height="25" rx="12" fill="#2c3e50"/>
  <text x="600" y="988" font-size="14" font-weight="bold" text-anchor="middle" fill="#ecf0f1">
    Success: 400ms P50 | 550ms P95 | 99.9% Uptime | 8 Languages | Happy Users!
  </text>
  
  <!-- Arrow marker -->
  <defs>
    <marker id="big-arrow" markerWidth="15" markerHeight="15" refX="15" refY="5" orient="auto">
      <polygon points="0 0, 15 5, 0 10" fill="#34495e"/>
    </marker>
  </defs>
</svg>